<svg width="1200" height="600" viewBox="0 0 1200 600" fill="none" xmlns="http://www.w3.org/2000/svg">
  <rect width="1200" height="600" rx="40" fill="#0B1118"/>
  <rect x="60" y="60" width="1080" height="480" rx="32" fill="#0F1722" stroke="rgba(255,255,255,0.08)"/>

  <g opacity="0.2">
    <path d="M120 140L360 140" stroke="#F97316" stroke-width="8" stroke-linecap="round"/>
    <path d="M120 170L300 170" stroke="#FDba74" stroke-width="8" stroke-linecap="round"/>
  </g>

  <g transform="translate(180,170)">
    <rect x="0" y="0" width="480" height="260" rx="24" fill="#131C27" stroke="rgba(255,255,255,0.08)"/>
    <rect x="28" y="28" width="424" height="66" rx="16" fill="#1B2633"/>
    <rect x="28" y="120" width="260" height="28" rx="14" fill="#1B2633"/>
    <rect x="28" y="164" width="210" height="28" rx="14" fill="#1B2633"/>
    <rect x="28" y="208" width="160" height="28" rx="14" fill="#1B2633"/>

    <g transform="translate(310,110)">
      <rect x="0" y="0" width="142" height="122" rx="18" fill="#0B1118" stroke="rgba(255,255,255,0.1)"/>
      <path d="M35 78L67 26L101 78H35Z" fill="#F97316"/>
      <rect x="64" y="46" width="10" height="32" rx="5" fill="#0B1118"/>
      <rect x="64" y="86" width="10" height="10" rx="5" fill="#0B1118"/>
      <rect x="18" y="18" width="106" height="86" rx="12" stroke="rgba(255,255,255,0.08)"/>
    </g>
  </g>

  <g transform="translate(760,150)">
    <path d="M0 210H260" stroke="#F97316" stroke-width="10" stroke-linecap="round"/>
    <path d="M30 210L80 70H220L170 210" stroke="#FDba74" stroke-width="10" stroke-linejoin="round"/>
    <circle cx="70" cy="240" r="26" fill="#101722" stroke="rgba(255,255,255,0.2)" stroke-width="6"/>
    <circle cx="190" cy="240" r="26" fill="#101722" stroke="rgba(255,255,255,0.2)" stroke-width="6"/>
    <rect x="70" y="40" width="160" height="44" rx="14" fill="#1B2633"/>
    <rect x="100" y="20" width="90" height="28" rx="12" fill="#F97316"/>
  </g>

  <g transform="translate(120,470)">
    <rect x="0" y="0" width="960" height="70" rx="20" fill="#131C27"/>
    <path d="M40 20L140 20" stroke="#F97316" stroke-width="8" stroke-linecap="round"/>
    <path d="M40 44L200 44" stroke="#FDba74" stroke-width="8" stroke-linecap="round"/>
    <path d="M260 20L520 20" stroke="rgba(255,255,255,0.18)" stroke-width="8" stroke-linecap="round"/>
    <path d="M260 44L460 44" stroke="rgba(255,255,255,0.12)" stroke-width="8" stroke-linecap="round"/>
  </g>

  <g transform="translate(520,95)">
    <rect x="0" y="0" width="160" height="48" rx="20" fill="#F97316"/>
    <text x="80" y="30" text-anchor="middle" font-family="Inter, system-ui, -apple-system, sans-serif" font-size="18" font-weight="700" fill="#0B1118">BAUSTELLE</text>
  </g>
</svg>
